<?xml version="1.0" encoding="utf-8" standalone="no"?>
<!DOCTYPE svg PUBLIC "-//W3C//DTD SVG 1.1//EN"
  "http://www.w3.org/Graphics/SVG/1.1/DTD/svg11.dtd">
<svg xmlns:xlink="http://www.w3.org/1999/xlink" viewBox="0 0 576 432" xmlns="http://www.w3.org/2000/svg" version="1.1">
 <metadata>
  <rdf:RDF xmlns:dc="http://purl.org/dc/elements/1.1/" xmlns:cc="http://creativecommons.org/ns#" xmlns:rdf="http://www.w3.org/1999/02/22-rdf-syntax-ns#">
   <cc:Work>
    <dc:type rdf:resource="http://purl.org/dc/dcmitype/StillImage"/>
    <dc:date>2022-04-22T15:02:45.721874</dc:date>
    <dc:format>image/svg+xml</dc:format>
    <dc:creator>
     <cc:Agent>
      <dc:title>Matplotlib v3.5.1, https://matplotlib.org/</dc:title>
     </cc:Agent>
    </dc:creator>
   </cc:Work>
  </rdf:RDF>
 </metadata>
 <defs>
  <style type="text/css">*{stroke-linejoin: round; stroke-linecap: butt}</style>
 </defs>
 <g id="figure_1">
  <g id="patch_1">
   <path d="M 0 432 
L 576 432 
L 576 0 
L 0 0 
z
" style="fill: #ffffff"/>
  </g>
  <g id="axes_1">
   <g id="patch_2">
    <path d="M 72 388.8 
L 518.4 388.8 
L 518.4 43.2 
L 72 43.2 
z
" style="fill: #ffffff"/>
   </g>
   <g id="line2d_1">
    <path d="M 72 45.800514 
L 170.35145 75.814541 
L 244.75145 91.089971 
L 319.15145 105.120777 
L 417.502901 122.898034 
L 491.902901 136.093397 
" clip-path="url(#p46841f3e9f)" style="fill: none; stroke-dasharray: 6,6; stroke-dashoffset: 0; stroke: #0000ff"/>
    <defs>
     <path id="m9d7994e3b5" d="M 0 1.5 
C 0.397805 1.5 0.77937 1.341951 1.06066 1.06066 
C 1.341951 0.77937 1.5 0.397805 1.5 0 
C 1.5 -0.397805 1.341951 -0.77937 1.06066 -1.06066 
C 0.77937 -1.341951 0.397805 -1.5 0 -1.5 
C -0.397805 -1.5 -0.77937 -1.341951 -1.06066 -1.06066 
C -1.341951 -0.77937 -1.5 -0.397805 -1.5 0 
C -1.5 0.397805 -1.341951 0.77937 -1.06066 1.06066 
C -0.77937 1.341951 -0.397805 1.5 0 1.5 
z
" style="stroke: #0000ff; stroke-width: 0.5"/>
    </defs>
    <g clip-path="url(#p46841f3e9f)">
     <use xlink:href="#m9d7994e3b5" x="72" y="45.800514" style="fill: #0000ff; stroke: #0000ff; stroke-width: 0.5"/>
     <use xlink:href="#m9d7994e3b5" x="170.35145" y="75.814541" style="fill: #0000ff; stroke: #0000ff; stroke-width: 0.5"/>
     <use xlink:href="#m9d7994e3b5" x="244.75145" y="91.089971" style="fill: #0000ff; stroke: #0000ff; stroke-width: 0.5"/>
     <use xlink:href="#m9d7994e3b5" x="319.15145" y="105.120777" style="fill: #0000ff; stroke: #0000ff; stroke-width: 0.5"/>
     <use xlink:href="#m9d7994e3b5" x="417.502901" y="122.898034" style="fill: #0000ff; stroke: #0000ff; stroke-width: 0.5"/>
     <use xlink:href="#m9d7994e3b5" x="491.902901" y="136.093397" style="fill: #0000ff; stroke: #0000ff; stroke-width: 0.5"/>
    </g>
   </g>
   <g id="line2d_2">
    <path d="M 72 55.573894 
L 170.35145 120.961747 
L 244.75145 151.253676 
L 319.15145 179.27275 
L 417.502901 214.817095 
L 491.902901 241.206471 
" clip-path="url(#p46841f3e9f)" style="fill: none; stroke-dasharray: 6,6; stroke-dashoffset: 0; stroke: #ff0000"/>
    <defs>
     <path id="m1151869ca9" d="M 0 1.5 
C 0.397805 1.5 0.77937 1.341951 1.06066 1.06066 
C 1.341951 0.77937 1.5 0.397805 1.5 0 
C 1.5 -0.397805 1.341951 -0.77937 1.06066 -1.06066 
C 0.77937 -1.341951 0.397805 -1.5 0 -1.5 
C -0.397805 -1.5 -0.77937 -1.341951 -1.06066 -1.06066 
C -1.341951 -0.77937 -1.5 -0.397805 -1.5 0 
C -1.5 0.397805 -1.341951 0.77937 -1.06066 1.06066 
C -0.77937 1.341951 -0.397805 1.5 0 1.5 
z
" style="stroke: #ff0000; stroke-width: 0.5"/>
    </defs>
    <g clip-path="url(#p46841f3e9f)">
     <use xlink:href="#m1151869ca9" x="72" y="55.573894" style="fill: #ff0000; stroke: #ff0000; stroke-width: 0.5"/>
     <use xlink:href="#m1151869ca9" x="170.35145" y="120.961747" style="fill: #ff0000; stroke: #ff0000; stroke-width: 0.5"/>
     <use xlink:href="#m1151869ca9" x="244.75145" y="151.253676" style="fill: #ff0000; stroke: #ff0000; stroke-width: 0.5"/>
     <use xlink:href="#m1151869ca9" x="319.15145" y="179.27275" style="fill: #ff0000; stroke: #ff0000; stroke-width: 0.5"/>
     <use xlink:href="#m1151869ca9" x="417.502901" y="214.817095" style="fill: #ff0000; stroke: #ff0000; stroke-width: 0.5"/>
     <use xlink:href="#m1151869ca9" x="491.902901" y="241.206471" style="fill: #ff0000; stroke: #ff0000; stroke-width: 0.5"/>
    </g>
   </g>
   <g id="line2d_3">
    <path d="M 72 58.205215 
L 170.35145 159.051939 
L 244.75145 207.341387 
L 319.15145 249.914829 
L 417.502901 303.368109 
L 491.902901 342.908824 
" clip-path="url(#p46841f3e9f)" style="fill: none; stroke-dasharray: 6,6; stroke-dashoffset: 0; stroke: #bf00bf"/>
    <defs>
     <path id="ma241ad72e1" d="M 0 1.5 
C 0.397805 1.5 0.77937 1.341951 1.06066 1.06066 
C 1.341951 0.77937 1.5 0.397805 1.5 0 
C 1.5 -0.397805 1.341951 -0.77937 1.06066 -1.06066 
C 0.77937 -1.341951 0.397805 -1.5 0 -1.5 
C -0.397805 -1.5 -0.77937 -1.341951 -1.06066 -1.06066 
C -1.341951 -0.77937 -1.5 -0.397805 -1.5 0 
C -1.5 0.397805 -1.341951 0.77937 -1.06066 1.06066 
C -0.77937 1.341951 -0.397805 1.5 0 1.5 
z
" style="stroke: #bf00bf; stroke-width: 0.5"/>
    </defs>
    <g clip-path="url(#p46841f3e9f)">
     <use xlink:href="#ma241ad72e1" x="72" y="58.205215" style="fill: #bf00bf; stroke: #bf00bf; stroke-width: 0.5"/>
     <use xlink:href="#ma241ad72e1" x="170.35145" y="159.051939" style="fill: #bf00bf; stroke: #bf00bf; stroke-width: 0.5"/>
     <use xlink:href="#ma241ad72e1" x="244.75145" y="207.341387" style="fill: #bf00bf; stroke: #bf00bf; stroke-width: 0.5"/>
     <use xlink:href="#ma241ad72e1" x="319.15145" y="249.914829" style="fill: #bf00bf; stroke: #bf00bf; stroke-width: 0.5"/>
     <use xlink:href="#ma241ad72e1" x="417.502901" y="303.368109" style="fill: #bf00bf; stroke: #bf00bf; stroke-width: 0.5"/>
     <use xlink:href="#ma241ad72e1" x="491.902901" y="342.908824" style="fill: #bf00bf; stroke: #bf00bf; stroke-width: 0.5"/>
    </g>
   </g>
   <g id="line2d_4">
    <path d="M 72 69.500814 
L 170.35145 146.995447 
L 244.75145 308.839138 
L 319.15145 381.316891 
L 417.502901 356.560526 
L 491.902901 355.91332 
" clip-path="url(#p46841f3e9f)" style="fill: none; stroke-dasharray: 6,6; stroke-dashoffset: 0; stroke: #008000"/>
    <defs>
     <path id="m00f14fc88d" d="M 0 1.5 
C 0.397805 1.5 0.77937 1.341951 1.06066 1.06066 
C 1.341951 0.77937 1.5 0.397805 1.5 0 
C 1.5 -0.397805 1.341951 -0.77937 1.06066 -1.06066 
C 0.77937 -1.341951 0.397805 -1.5 0 -1.5 
C -0.397805 -1.5 -0.77937 -1.341951 -1.06066 -1.06066 
C -1.341951 -0.77937 -1.5 -0.397805 -1.5 0 
C -1.5 0.397805 -1.341951 0.77937 -1.06066 1.06066 
C -0.77937 1.341951 -0.397805 1.5 0 1.5 
z
" style="stroke: #008000; stroke-width: 0.5"/>
    </defs>
    <g clip-path="url(#p46841f3e9f)">
     <use xlink:href="#m00f14fc88d" x="72" y="69.500814" style="fill: #008000; stroke: #008000; stroke-width: 0.5"/>
     <use xlink:href="#m00f14fc88d" x="170.35145" y="146.995447" style="fill: #008000; stroke: #008000; stroke-width: 0.5"/>
     <use xlink:href="#m00f14fc88d" x="244.75145" y="308.839138" style="fill: #008000; stroke: #008000; stroke-width: 0.5"/>
     <use xlink:href="#m00f14fc88d" x="319.15145" y="381.316891" style="fill: #008000; stroke: #008000; stroke-width: 0.5"/>
     <use xlink:href="#m00f14fc88d" x="417.502901" y="356.560526" style="fill: #008000; stroke: #008000; stroke-width: 0.5"/>
     <use xlink:href="#m00f14fc88d" x="491.902901" y="355.91332" style="fill: #008000; stroke: #008000; stroke-width: 0.5"/>
    </g>
   </g>
   <g id="patch_3">
    <path d="M 72 388.8 
L 72 43.2 
" style="fill: none; stroke: #000000; stroke-linejoin: miter; stroke-linecap: square"/>
   </g>
   <g id="patch_4">
    <path d="M 518.4 388.8 
L 518.4 43.2 
" style="fill: none; stroke: #000000; stroke-linejoin: miter; stroke-linecap: square"/>
   </g>
   <g id="patch_5">
    <path d="M 72 388.8 
L 518.4 388.8 
" style="fill: none; stroke: #000000; stroke-linejoin: miter; stroke-linecap: square"/>
   </g>
   <g id="patch_6">
    <path d="M 72 43.2 
L 518.4 43.2 
" style="fill: none; stroke: #000000; stroke-linejoin: miter; stroke-linecap: square"/>
   </g>
   <g id="matplotlib.axis_1">
    <g id="xtick_1">
     <g id="line2d_5">
      <path d="M 72 388.8 
L 72 43.2 
" clip-path="url(#p46841f3e9f)" style="fill: none; stroke-dasharray: 1,3; stroke-dashoffset: 0; stroke: #000000; stroke-width: 0.5"/>
     </g>
     <g id="line2d_6">
      <defs>
       <path id="mcae52d1d12" d="M 0 0 
L 0 -4 
" style="stroke: #000000; stroke-width: 0.5"/>
      </defs>
      <g>
       <use xlink:href="#mcae52d1d12" x="72" y="388.8" style="stroke: #000000; stroke-width: 0.5"/>
      </g>
     </g>
     <g id="line2d_7">
      <defs>
       <path id="m6aeb2f842e" d="M 0 0 
L 0 4 
" style="stroke: #000000; stroke-width: 0.5"/>
      </defs>
      <g>
       <use xlink:href="#m6aeb2f842e" x="72" y="43.2" style="stroke: #000000; stroke-width: 0.5"/>
      </g>
     </g>
     <g id="text_1">
      <!-- $\mathdefault{2}$ -->
      <g transform="translate(69.509332 400.192201)scale(0.1 -0.1)">
       <defs>
        <path id="CMR17-32" d="M 2669 989 
L 2554 989 
C 2490 536 2438 459 2413 420 
C 2381 369 1920 369 1830 369 
L 602 369 
C 832 619 1280 1072 1824 1597 
C 2214 1967 2669 2402 2669 3035 
C 2669 3790 2067 4224 1395 4224 
C 691 4224 262 3604 262 3030 
C 262 2780 448 2748 525 2748 
C 589 2748 781 2787 781 3010 
C 781 3207 614 3264 525 3264 
C 486 3264 448 3258 422 3245 
C 544 3790 915 4058 1306 4058 
C 1862 4058 2227 3617 2227 3035 
C 2227 2479 1901 2000 1536 1584 
L 262 146 
L 262 0 
L 2515 0 
L 2669 989 
z
" transform="scale(0.015625)"/>
       </defs>
       <use xlink:href="#CMR17-32" transform="scale(0.996264)"/>
      </g>
     </g>
    </g>
    <g id="xtick_2">
     <g id="line2d_8">
      <path d="M 146.4 388.8 
L 146.4 43.2 
" clip-path="url(#p46841f3e9f)" style="fill: none; stroke-dasharray: 1,3; stroke-dashoffset: 0; stroke: #000000; stroke-width: 0.5"/>
     </g>
     <g id="line2d_9">
      <g>
       <use xlink:href="#mcae52d1d12" x="146.4" y="388.8" style="stroke: #000000; stroke-width: 0.5"/>
      </g>
     </g>
     <g id="line2d_10">
      <g>
       <use xlink:href="#m6aeb2f842e" x="146.4" y="43.2" style="stroke: #000000; stroke-width: 0.5"/>
      </g>
     </g>
     <g id="text_2">
      <!-- $\mathdefault{4}$ -->
      <g transform="translate(143.909332 400.192201)scale(0.1 -0.1)">
       <defs>
        <path id="CMR17-34" d="M 2150 4122 
C 2150 4256 2144 4256 2029 4256 
L 128 1254 
L 128 1088 
L 1779 1088 
L 1779 457 
C 1779 224 1766 160 1318 160 
L 1197 160 
L 1197 0 
C 1402 0 1747 0 1965 0 
C 2182 0 2528 0 2733 0 
L 2733 160 
L 2611 160 
C 2163 160 2150 224 2150 457 
L 2150 1088 
L 2803 1088 
L 2803 1254 
L 2150 1254 
L 2150 4122 
z
M 1798 3703 
L 1798 1254 
L 256 1254 
L 1798 3703 
z
" transform="scale(0.015625)"/>
       </defs>
       <use xlink:href="#CMR17-34" transform="scale(0.996264)"/>
      </g>
     </g>
    </g>
    <g id="xtick_3">
     <g id="line2d_11">
      <path d="M 220.8 388.8 
L 220.8 43.2 
" clip-path="url(#p46841f3e9f)" style="fill: none; stroke-dasharray: 1,3; stroke-dashoffset: 0; stroke: #000000; stroke-width: 0.5"/>
     </g>
     <g id="line2d_12">
      <g>
       <use xlink:href="#mcae52d1d12" x="220.8" y="388.8" style="stroke: #000000; stroke-width: 0.5"/>
      </g>
     </g>
     <g id="line2d_13">
      <g>
       <use xlink:href="#m6aeb2f842e" x="220.8" y="43.2" style="stroke: #000000; stroke-width: 0.5"/>
      </g>
     </g>
     <g id="text_3">
      <!-- $\mathdefault{8}$ -->
      <g transform="translate(218.309332 400.192201)scale(0.1 -0.1)">
       <defs>
        <path id="CMR17-38" d="M 1741 2264 
C 2144 2467 2554 2773 2554 3263 
C 2554 3841 1990 4179 1472 4179 
C 890 4179 378 3759 378 3180 
C 378 3021 416 2747 666 2505 
C 730 2442 998 2251 1171 2130 
C 883 1983 211 1634 211 934 
C 211 279 838 -128 1459 -128 
C 2144 -128 2720 362 2720 1010 
C 2720 1590 2330 1857 2074 2029 
L 1741 2264 
z
M 902 2822 
C 851 2854 595 3051 595 3351 
C 595 3739 998 4032 1459 4032 
C 1965 4032 2336 3676 2336 3262 
C 2336 2669 1670 2331 1638 2331 
C 1632 2331 1626 2331 1574 2370 
L 902 2822 
z
M 2080 1519 
C 2176 1449 2483 1240 2483 851 
C 2483 381 2010 25 1472 25 
C 890 25 448 438 448 940 
C 448 1443 838 1862 1280 2060 
L 2080 1519 
z
" transform="scale(0.015625)"/>
       </defs>
       <use xlink:href="#CMR17-38" transform="scale(0.996264)"/>
      </g>
     </g>
    </g>
    <g id="xtick_4">
     <g id="line2d_14">
      <path d="M 295.2 388.8 
L 295.2 43.2 
" clip-path="url(#p46841f3e9f)" style="fill: none; stroke-dasharray: 1,3; stroke-dashoffset: 0; stroke: #000000; stroke-width: 0.5"/>
     </g>
     <g id="line2d_15">
      <g>
       <use xlink:href="#mcae52d1d12" x="295.2" y="388.8" style="stroke: #000000; stroke-width: 0.5"/>
      </g>
     </g>
     <g id="line2d_16">
      <g>
       <use xlink:href="#m6aeb2f842e" x="295.2" y="43.2" style="stroke: #000000; stroke-width: 0.5"/>
      </g>
     </g>
     <g id="text_4">
      <!-- $\mathdefault{16}$ -->
      <g transform="translate(290.218665 400.192201)scale(0.1 -0.1)">
       <defs>
        <path id="CMR17-31" d="M 1702 4058 
C 1702 4192 1696 4192 1606 4192 
C 1357 3916 979 3827 621 3827 
C 602 3827 570 3827 563 3808 
C 557 3795 557 3782 557 3648 
C 755 3648 1088 3686 1344 3839 
L 1344 461 
C 1344 236 1331 160 781 160 
L 589 160 
L 589 0 
C 896 0 1216 0 1523 0 
C 1830 0 2150 0 2458 0 
L 2458 160 
L 2266 160 
C 1715 160 1702 230 1702 458 
L 1702 4058 
z
" transform="scale(0.015625)"/>
        <path id="CMR17-36" d="M 678 2176 
C 678 3690 1395 4032 1811 4032 
C 1946 4032 2272 4009 2400 3776 
C 2298 3776 2106 3776 2106 3553 
C 2106 3381 2246 3323 2336 3323 
C 2394 3323 2566 3348 2566 3560 
C 2566 3954 2246 4179 1805 4179 
C 1043 4179 243 3390 243 1984 
C 243 253 966 -128 1478 -128 
C 2099 -128 2688 427 2688 1283 
C 2688 2081 2170 2662 1517 2662 
C 1126 2662 838 2407 678 1960 
L 678 2176 
z
M 1478 25 
C 691 25 691 1200 691 1436 
C 691 1896 909 2560 1504 2560 
C 1613 2560 1926 2560 2138 2120 
C 2253 1870 2253 1609 2253 1289 
C 2253 944 2253 690 2118 434 
C 1978 171 1773 25 1478 25 
z
" transform="scale(0.015625)"/>
       </defs>
       <use xlink:href="#CMR17-31" transform="scale(0.996264)"/>
       <use xlink:href="#CMR17-36" transform="translate(45.690477 0)scale(0.996264)"/>
      </g>
     </g>
    </g>
    <g id="xtick_5">
     <g id="line2d_17">
      <path d="M 369.6 388.8 
L 369.6 43.2 
" clip-path="url(#p46841f3e9f)" style="fill: none; stroke-dasharray: 1,3; stroke-dashoffset: 0; stroke: #000000; stroke-width: 0.5"/>
     </g>
     <g id="line2d_18">
      <g>
       <use xlink:href="#mcae52d1d12" x="369.6" y="388.8" style="stroke: #000000; stroke-width: 0.5"/>
      </g>
     </g>
     <g id="line2d_19">
      <g>
       <use xlink:href="#m6aeb2f842e" x="369.6" y="43.2" style="stroke: #000000; stroke-width: 0.5"/>
      </g>
     </g>
     <g id="text_5">
      <!-- $\mathdefault{32}$ -->
      <g transform="translate(364.618665 400.192201)scale(0.1 -0.1)">
       <defs>
        <path id="CMR17-33" d="M 1414 2157 
C 1984 2157 2234 1662 2234 1090 
C 2234 320 1824 25 1453 25 
C 1114 25 563 194 390 693 
C 422 680 454 680 486 680 
C 640 680 755 782 755 948 
C 755 1133 614 1216 486 1216 
C 378 1216 211 1165 211 926 
C 211 335 787 -128 1466 -128 
C 2176 -128 2720 430 2720 1085 
C 2720 1707 2208 2157 1600 2227 
C 2086 2328 2554 2756 2554 3329 
C 2554 3820 2048 4179 1472 4179 
C 890 4179 378 3829 378 3329 
C 378 3110 544 3072 627 3072 
C 762 3072 877 3155 877 3321 
C 877 3486 762 3569 627 3569 
C 602 3569 570 3569 544 3557 
C 730 3959 1235 4032 1459 4032 
C 1683 4032 2106 3925 2106 3320 
C 2106 3143 2080 2828 1862 2550 
C 1670 2304 1453 2304 1242 2284 
C 1210 2284 1062 2269 1037 2269 
C 992 2263 966 2257 966 2208 
C 966 2163 973 2157 1101 2157 
L 1414 2157 
z
" transform="scale(0.015625)"/>
       </defs>
       <use xlink:href="#CMR17-33" transform="scale(0.996264)"/>
       <use xlink:href="#CMR17-32" transform="translate(45.690477 0)scale(0.996264)"/>
      </g>
     </g>
    </g>
    <g id="xtick_6">
     <g id="line2d_20">
      <path d="M 444 388.8 
L 444 43.2 
" clip-path="url(#p46841f3e9f)" style="fill: none; stroke-dasharray: 1,3; stroke-dashoffset: 0; stroke: #000000; stroke-width: 0.5"/>
     </g>
     <g id="line2d_21">
      <g>
       <use xlink:href="#mcae52d1d12" x="444" y="388.8" style="stroke: #000000; stroke-width: 0.5"/>
      </g>
     </g>
     <g id="line2d_22">
      <g>
       <use xlink:href="#m6aeb2f842e" x="444" y="43.2" style="stroke: #000000; stroke-width: 0.5"/>
      </g>
     </g>
     <g id="text_6">
      <!-- $\mathdefault{64}$ -->
      <g transform="translate(439.018665 400.192201)scale(0.1 -0.1)">
       <use xlink:href="#CMR17-36" transform="scale(0.996264)"/>
       <use xlink:href="#CMR17-34" transform="translate(45.690477 0)scale(0.996264)"/>
      </g>
     </g>
    </g>
    <g id="xtick_7">
     <g id="line2d_23">
      <path d="M 518.4 388.8 
L 518.4 43.2 
" clip-path="url(#p46841f3e9f)" style="fill: none; stroke-dasharray: 1,3; stroke-dashoffset: 0; stroke: #000000; stroke-width: 0.5"/>
     </g>
     <g id="line2d_24">
      <g>
       <use xlink:href="#mcae52d1d12" x="518.4" y="388.8" style="stroke: #000000; stroke-width: 0.5"/>
      </g>
     </g>
     <g id="line2d_25">
      <g>
       <use xlink:href="#m6aeb2f842e" x="518.4" y="43.2" style="stroke: #000000; stroke-width: 0.5"/>
      </g>
     </g>
     <g id="text_7">
      <!-- $\mathdefault{128}$ -->
      <g transform="translate(510.927997 400.192201)scale(0.1 -0.1)">
       <use xlink:href="#CMR17-31" transform="scale(0.996264)"/>
       <use xlink:href="#CMR17-32" transform="translate(45.690477 0)scale(0.996264)"/>
       <use xlink:href="#CMR17-38" transform="translate(91.380954 0)scale(0.996264)"/>
      </g>
     </g>
    </g>
    <g id="text_8">
     <!-- $number\ of\ grid\ points$ -->
     <g transform="translate(236.963978 415.902556)scale(0.12 -0.12)">
      <defs>
       <path id="CMMI12-6e" d="M 1318 1871 
C 1331 1910 1491 2229 1728 2433 
C 1894 2586 2112 2689 2362 2689 
C 2618 2689 2707 2497 2707 2242 
C 2707 1878 2445 1150 2317 805 
C 2259 651 2227 568 2227 453 
C 2227 166 2426 -64 2733 -64 
C 3328 -64 3552 875 3552 913 
C 3552 945 3526 971 3488 971 
C 3430 971 3424 952 3392 843 
C 3245 319 3002 64 2752 64 
C 2688 64 2586 64 2586 269 
C 2586 429 2656 621 2694 710 
C 2822 1063 3091 1780 3091 2145 
C 3091 2528 2867 2816 2381 2816 
C 1811 2816 1510 2415 1395 2255 
C 1376 2618 1114 2816 832 2816 
C 627 2816 486 2695 378 2478 
C 262 2248 173 1865 173 1839 
C 173 1814 198 1782 243 1782 
C 294 1782 301 1788 339 1935 
C 442 2325 557 2689 813 2689 
C 960 2689 1011 2586 1011 2395 
C 1011 2254 947 2005 902 1807 
L 723 1118 
C 698 996 627 709 595 594 
C 550 428 480 128 480 96 
C 480 6 550 -64 646 -64 
C 723 -64 813 -26 864 70 
C 877 102 934 326 966 453 
L 1107 1028 
L 1318 1871 
z
" transform="scale(0.015625)"/>
       <path id="CMMI12-75" d="M 2182 370 
C 2266 13 2573 -64 2726 -64 
C 2931 -64 3085 70 3187 287 
C 3296 517 3379 894 3379 913 
C 3379 945 3354 971 3315 971 
C 3258 971 3251 939 3226 843 
C 3110 402 2995 64 2739 64 
C 2547 64 2547 275 2547 358 
C 2547 505 2566 568 2630 837 
C 2675 1009 2720 1181 2758 1360 
L 3021 2401 
C 3066 2561 3066 2574 3066 2593 
C 3066 2689 2989 2753 2893 2753 
C 2707 2753 2662 2593 2624 2433 
C 2560 2184 2214 811 2170 588 
C 2163 588 1914 64 1446 64 
C 1114 64 1050 351 1050 588 
C 1050 952 1229 1462 1395 1890 
C 1472 2095 1504 2178 1504 2305 
C 1504 2580 1306 2816 998 2816 
C 410 2816 173 1890 173 1839 
C 173 1814 198 1782 243 1782 
C 301 1782 307 1807 333 1896 
C 486 2441 736 2682 979 2682 
C 1043 2682 1146 2682 1146 2478 
C 1146 2312 1075 2127 979 1884 
C 698 1124 666 881 666 690 
C 666 38 1158 -64 1421 -64 
C 1830 -64 2054 217 2182 370 
z
" transform="scale(0.015625)"/>
       <path id="CMMI12-6d" d="M 1318 1871 
C 1331 1910 1491 2229 1728 2433 
C 1894 2586 2112 2689 2362 2689 
C 2618 2689 2707 2497 2707 2242 
C 2707 2203 2707 2076 2630 1775 
L 2470 1118 
C 2419 926 2298 453 2285 383 
C 2259 287 2221 121 2221 96 
C 2221 6 2291 -64 2387 -64 
C 2579 -64 2611 83 2669 313 
L 3053 1839 
C 3066 1890 3398 2689 4102 2689 
C 4358 2689 4448 2497 4448 2242 
C 4448 1884 4198 1188 4058 805 
C 4000 651 3968 568 3968 453 
C 3968 166 4166 -64 4474 -64 
C 5069 -64 5293 875 5293 913 
C 5293 945 5267 971 5229 971 
C 5171 971 5165 952 5133 843 
C 4986 332 4749 64 4493 64 
C 4429 64 4326 64 4326 269 
C 4326 436 4403 640 4429 710 
C 4544 1018 4832 1773 4832 2145 
C 4832 2528 4608 2816 4122 2816 
C 3693 2816 3347 2574 3091 2197 
C 3072 2542 2861 2816 2381 2816 
C 1811 2816 1510 2415 1395 2255 
C 1376 2618 1114 2816 832 2816 
C 646 2816 499 2727 378 2484 
C 262 2254 173 1865 173 1839 
C 173 1814 198 1782 243 1782 
C 294 1782 301 1788 339 1935 
C 435 2312 557 2689 813 2689 
C 960 2689 1011 2586 1011 2395 
C 1011 2254 947 2005 902 1807 
L 723 1118 
C 698 996 627 709 595 594 
C 550 428 480 128 480 96 
C 480 6 550 -64 646 -64 
C 723 -64 813 -26 864 70 
C 877 102 934 326 966 453 
L 1107 1028 
L 1318 1871 
z
" transform="scale(0.015625)"/>
       <path id="CMMI12-62" d="M 1478 4257 
C 1485 4283 1498 4321 1498 4352 
C 1498 4416 1434 4416 1421 4416 
C 1414 4416 1184 4393 1069 4377 
C 960 4377 864 4358 749 4358 
C 595 4345 550 4339 550 4224 
C 550 4160 614 4160 678 4160 
C 1005 4160 1005 4103 1005 4040 
C 1005 3996 954 3811 928 3696 
L 774 3085 
C 710 2831 346 1387 320 1272 
C 288 1114 288 1005 288 922 
C 288 274 653 -64 1069 -64 
C 1811 -64 2579 888 2579 1814 
C 2579 2401 2246 2816 1766 2816 
C 1434 2816 1133 2542 1011 2414 
L 1478 4257 
z
M 1075 64 
C 870 64 646 217 646 715 
C 646 926 666 1047 781 1494 
C 800 1577 902 1986 928 2069 
C 941 2120 1318 2689 1754 2689 
C 2035 2689 2163 2408 2163 2076 
C 2163 1769 1984 1047 1824 715 
C 1664 370 1370 64 1075 64 
z
" transform="scale(0.015625)"/>
       <path id="CMMI12-65" d="M 1146 1479 
C 1318 1479 1754 1479 2061 1595 
C 2547 1783 2592 2158 2592 2274 
C 2592 2558 2349 2816 1926 2816 
C 1254 2816 288 2210 288 1073 
C 288 402 672 -64 1254 -64 
C 2125 -64 2675 609 2675 692 
C 2675 730 2637 762 2611 762 
C 2592 762 2586 756 2528 699 
C 2118 159 1510 64 1267 64 
C 902 64 710 350 710 822 
C 710 911 710 1071 806 1479 
L 1146 1479 
z
M 838 1600 
C 1114 2592 1722 2689 1926 2689 
C 2208 2689 2400 2522 2400 2277 
C 2400 1600 1376 1600 1107 1600 
L 838 1600 
z
" transform="scale(0.015625)"/>
       <path id="CMMI12-72" d="M 2490 2612 
C 2291 2574 2189 2433 2189 2293 
C 2189 2139 2310 2088 2400 2088 
C 2579 2088 2726 2242 2726 2433 
C 2726 2638 2528 2816 2208 2816 
C 1952 2816 1658 2701 1389 2312 
C 1344 2650 1088 2816 832 2816 
C 582 2816 454 2625 378 2484 
C 269 2254 173 1871 173 1839 
C 173 1814 198 1782 243 1782 
C 294 1782 301 1788 339 1935 
C 435 2318 557 2689 813 2689 
C 966 2689 1011 2580 1011 2395 
C 1011 2254 947 2005 902 1807 
L 723 1118 
C 698 996 627 709 595 594 
C 550 428 480 128 480 96 
C 480 6 550 -64 646 -64 
C 717 -64 838 -19 877 109 
C 896 160 1133 1124 1171 1271 
C 1203 1411 1242 1546 1274 1686 
C 1299 1775 1325 1878 1344 1961 
C 1363 2018 1536 2331 1696 2472 
C 1773 2542 1939 2689 2202 2689 
C 2304 2689 2406 2670 2490 2612 
z
" transform="scale(0.015625)"/>
       <path id="CMMI12-6f" d="M 2918 1756 
C 2918 2363 2522 2816 1939 2816 
C 1094 2816 262 1897 262 996 
C 262 390 659 -64 1242 -64 
C 2093 -64 2918 856 2918 1756 
z
M 1248 64 
C 928 64 691 319 691 766 
C 691 1060 845 1712 1024 2031 
C 1312 2523 1670 2689 1933 2689 
C 2246 2689 2490 2433 2490 1986 
C 2490 1731 2355 1047 2112 658 
C 1850 230 1498 64 1248 64 
z
" transform="scale(0.015625)"/>
       <path id="CMMI12-66" d="M 2854 2566 
C 2982 2566 3034 2566 3034 2688 
C 3034 2752 2982 2752 2867 2752 
L 2349 2752 
C 2470 3429 2560 3897 2611 4107 
C 2650 4265 2784 4416 2950 4416 
C 3085 4416 3219 4358 3283 4298 
C 3034 4272 2957 4082 2957 3969 
C 2957 3837 3053 3759 3174 3759 
C 3302 3759 3494 3870 3494 4119 
C 3494 4393 3226 4544 2944 4544 
C 2669 4544 2400 4334 2272 4078 
C 2157 3848 2093 3611 1946 2752 
L 1517 2752 
C 1395 2752 1331 2752 1331 2637 
C 1331 2566 1370 2566 1498 2566 
L 1907 2566 
C 1792 1976 1530 542 1382 -137 
C 1274 -689 1178 -1152 858 -1152 
C 838 -1152 653 -1152 538 -1031 
C 864 -1005 864 -726 864 -720 
C 864 -593 768 -517 646 -517 
C 518 -517 326 -625 326 -867 
C 326 -1140 608 -1280 858 -1280 
C 1510 -1280 1779 -118 1850 199 
C 1965 688 2278 2376 2310 2566 
L 2854 2566 
z
" transform="scale(0.015625)"/>
       <path id="CMMI12-67" d="M 2163 811 
C 2138 709 2125 683 2042 588 
C 1779 249 1510 128 1312 128 
C 1101 128 902 294 902 734 
C 902 1073 1094 1788 1235 2076 
C 1421 2433 1709 2689 1978 2689 
C 2400 2689 2483 2165 2483 2127 
L 2464 2037 
L 2163 811 
z
M 2560 2395 
C 2477 2580 2298 2816 1978 2816 
C 1280 2816 486 1941 486 990 
C 486 326 890 0 1299 0 
C 1638 0 1939 268 2054 396 
L 1914 -171 
C 1824 -516 1786 -674 1555 -894 
C 1293 -1152 1050 -1152 909 -1152 
C 717 -1152 557 -1139 397 -1089 
C 602 -1033 653 -858 653 -789 
C 653 -689 576 -588 435 -588 
C 282 -588 115 -714 115 -922 
C 115 -1180 378 -1280 922 -1280 
C 1747 -1280 2176 -753 2259 -410 
L 2970 2435 
C 2989 2511 2989 2524 2989 2536 
C 2989 2625 2918 2695 2822 2695 
C 2669 2695 2579 2567 2560 2395 
z
" transform="scale(0.015625)"/>
       <path id="CMMI12-69" d="M 1811 913 
C 1811 945 1786 971 1747 971 
C 1690 971 1683 952 1651 843 
C 1485 262 1222 64 1011 64 
C 934 64 845 83 845 275 
C 845 447 922 639 992 830 
L 1440 2018 
C 1459 2069 1504 2184 1504 2305 
C 1504 2574 1312 2816 998 2816 
C 410 2816 173 1890 173 1839 
C 173 1814 198 1782 243 1782 
C 301 1782 307 1807 333 1896 
C 486 2428 730 2682 979 2682 
C 1037 2682 1146 2682 1146 2478 
C 1146 2312 1062 2101 1011 1961 
L 563 773 
C 525 671 486 568 486 453 
C 486 166 685 -64 992 -64 
C 1581 -64 1811 869 1811 913 
z
M 1760 4013 
C 1760 4109 1683 4224 1542 4224 
C 1395 4224 1229 4083 1229 3917 
C 1229 3758 1363 3707 1440 3707 
C 1613 3707 1760 3873 1760 4013 
z
" transform="scale(0.015625)"/>
       <path id="CMMI12-64" d="M 3219 4257 
C 3226 4282 3238 4320 3238 4352 
C 3238 4416 3174 4416 3162 4416 
C 3155 4416 2842 4388 2810 4380 
C 2701 4373 2605 4358 2490 4358 
C 2330 4345 2285 4339 2285 4224 
C 2285 4160 2336 4160 2426 4160 
C 2739 4160 2746 4103 2746 4040 
C 2746 4002 2733 3952 2726 3933 
L 2336 2395 
C 2266 2561 2093 2816 1760 2816 
C 1037 2816 256 1884 256 939 
C 256 307 627 -64 1062 -64 
C 1414 -64 1715 211 1894 422 
C 1958 45 2259 -64 2451 -64 
C 2643 -64 2797 51 2912 281 
C 3014 498 3104 888 3104 913 
C 3104 945 3078 971 3040 971 
C 2982 971 2976 939 2950 843 
C 2854 466 2733 64 2470 64 
C 2285 64 2272 229 2272 357 
C 2272 382 2272 515 2317 694 
L 3219 4257 
z
M 1926 760 
C 1894 651 1894 639 1805 517 
C 1664 338 1382 64 1082 64 
C 819 64 672 300 672 677 
C 672 1028 870 1743 992 2012 
C 1210 2459 1510 2689 1760 2689 
C 2182 2689 2266 2165 2266 2114 
C 2266 2108 2246 2024 2240 2012 
L 1926 760 
z
" transform="scale(0.015625)"/>
       <path id="CMMI12-70" d="M 275 -789 
C 230 -980 205 -1031 -58 -1031 
C -134 -1031 -198 -1031 -198 -1152 
C -198 -1165 -192 -1216 -122 -1216 
C -38 -1216 51 -1216 134 -1216 
L 410 -1216 
C 544 -1216 870 -1216 1005 -1216 
C 1043 -1216 1120 -1216 1120 -1101 
C 1120 -1031 1075 -1031 966 -1031 
C 672 -1031 653 -987 653 -937 
C 653 -861 941 219 979 364 
C 1050 185 1222 -64 1555 -64 
C 2278 -64 3059 875 3059 1814 
C 3059 2401 2726 2816 2246 2816 
C 1837 2816 1491 2420 1421 2331 
C 1370 2650 1120 2816 864 2816 
C 678 2816 531 2727 410 2484 
C 294 2254 205 1865 205 1839 
C 205 1814 230 1782 275 1782 
C 326 1782 333 1788 371 1935 
C 467 2312 589 2689 845 2689 
C 992 2689 1043 2587 1043 2397 
C 1043 2245 1024 2181 998 2067 
L 275 -789 
z
M 1382 1993 
C 1427 2171 1606 2357 1709 2446 
C 1779 2510 1990 2689 2234 2689 
C 2515 2689 2643 2408 2643 2076 
C 2643 1769 2464 1047 2304 715 
C 2144 370 1850 64 1555 64 
C 1120 64 1050 613 1050 639 
C 1050 658 1062 709 1069 741 
L 1382 1993 
z
" transform="scale(0.015625)"/>
       <path id="CMMI12-74" d="M 1286 2566 
L 1875 2566 
C 1997 2566 2061 2566 2061 2681 
C 2061 2752 2022 2752 1894 2752 
L 1331 2752 
L 1568 3692 
C 1594 3781 1594 3794 1594 3840 
C 1594 3943 1510 4000 1427 4000 
C 1376 4000 1229 3981 1178 3775 
L 928 2752 
L 326 2752 
C 198 2752 141 2752 141 2630 
C 141 2566 186 2566 307 2566 
L 877 2566 
L 454 881 
C 403 658 384 594 384 511 
C 384 211 595 -64 954 -64 
C 1600 -64 1946 868 1946 912 
C 1946 951 1920 970 1882 970 
C 1869 970 1843 970 1830 944 
C 1824 938 1818 931 1773 829 
C 1638 511 1344 64 973 64 
C 781 64 768 224 768 364 
C 768 370 768 492 787 568 
L 1286 2566 
z
" transform="scale(0.015625)"/>
       <path id="CMMI12-73" d="M 1459 1280 
C 1568 1261 1741 1223 1779 1216 
C 1862 1192 2150 1090 2150 783 
C 2150 586 1971 70 1229 70 
C 1094 70 614 70 486 436 
C 742 404 870 603 870 745 
C 870 880 781 950 653 950 
C 512 950 326 841 326 552 
C 326 173 710 -64 1222 -64 
C 2195 -64 2483 651 2483 984 
C 2483 1079 2483 1258 2278 1462 
C 2118 1616 1965 1648 1619 1718 
C 1446 1756 1171 1814 1171 2101 
C 1171 2229 1286 2689 1894 2689 
C 2163 2689 2426 2589 2490 2368 
C 2208 2368 2195 2125 2195 2119 
C 2195 1984 2317 1946 2374 1946 
C 2464 1946 2643 2015 2643 2281 
C 2643 2545 2400 2816 1901 2816 
C 1062 2816 838 2160 838 1899 
C 838 1414 1312 1312 1459 1280 
z
" transform="scale(0.015625)"/>
      </defs>
      <use xlink:href="#CMMI12-6e" transform="scale(0.996264)"/>
      <use xlink:href="#CMMI12-75" transform="translate(58.230047 0)scale(0.996264)"/>
      <use xlink:href="#CMMI12-6d" transform="translate(113.750377 0)scale(0.996264)"/>
      <use xlink:href="#CMMI12-62" transform="translate(199.077601 0)scale(0.996264)"/>
      <use xlink:href="#CMMI12-65" transform="translate(240.553476 0)scale(0.996264)"/>
      <use xlink:href="#CMMI12-72" transform="translate(285.765477 0)scale(0.996264)"/>
      <use xlink:href="#CMMI12-6f" transform="translate(360.131258 0)scale(0.996264)"/>
      <use xlink:href="#CMMI12-66" transform="translate(407.026568 0)scale(0.996264)"/>
      <use xlink:href="#CMMI12-67" transform="translate(493.442042 0)scale(0.996264)"/>
      <use xlink:href="#CMMI12-72" transform="translate(543.727532 0)scale(0.996264)"/>
      <use xlink:href="#CMMI12-69" transform="translate(590.398144 0)scale(0.996264)"/>
      <use xlink:href="#CMMI12-64" transform="translate(623.676746 0)scale(0.996264)"/>
      <use xlink:href="#CMMI12-70" transform="translate(702.061012 0)scale(0.996264)"/>
      <use xlink:href="#CMMI12-6f" transform="translate(751.020526 0)scale(0.996264)"/>
      <use xlink:href="#CMMI12-69" transform="translate(797.915836 0)scale(0.996264)"/>
      <use xlink:href="#CMMI12-6e" transform="translate(831.194437 0)scale(0.996264)"/>
      <use xlink:href="#CMMI12-74" transform="translate(889.424485 0)scale(0.996264)"/>
      <use xlink:href="#CMMI12-73" transform="translate(924.650815 0)scale(0.996264)"/>
     </g>
    </g>
   </g>
   <g id="matplotlib.axis_2">
    <g id="ytick_1">
     <g id="line2d_26">
      <path d="M 72 388.8 
L 518.4 388.8 
" clip-path="url(#p46841f3e9f)" style="fill: none; stroke-dasharray: 1,3; stroke-dashoffset: 0; stroke: #000000; stroke-width: 0.5"/>
     </g>
     <g id="line2d_27">
      <defs>
       <path id="m530034a3b9" d="M 0 0 
L 4 0 
" style="stroke: #000000; stroke-width: 0.5"/>
      </defs>
      <g>
       <use xlink:href="#m530034a3b9" x="72" y="388.8" style="stroke: #000000; stroke-width: 0.5"/>
      </g>
     </g>
     <g id="line2d_28">
      <defs>
       <path id="m48bd4f0458" d="M 0 0 
L -4 0 
" style="stroke: #000000; stroke-width: 0.5"/>
      </defs>
      <g>
       <use xlink:href="#m48bd4f0458" x="518.4" y="388.8" style="stroke: #000000; stroke-width: 0.5"/>
      </g>
     </g>
     <g id="text_9">
      <!-- $\mathdefault{10^{-16}}$ -->
      <g transform="translate(43.868189 391.549668)scale(0.1 -0.1)">
       <defs>
        <path id="CMR17-30" d="M 2688 2025 
C 2688 2416 2682 3080 2413 3591 
C 2176 4039 1798 4198 1466 4198 
C 1158 4198 768 4058 525 3597 
C 269 3118 243 2524 243 2025 
C 243 1661 250 1106 448 619 
C 723 -39 1216 -128 1466 -128 
C 1760 -128 2208 -7 2470 600 
C 2662 1042 2688 1559 2688 2025 
z
M 1466 -26 
C 1056 -26 813 325 723 812 
C 653 1188 653 1738 653 2096 
C 653 2588 653 2997 736 3387 
C 858 3929 1216 4096 1466 4096 
C 1728 4096 2067 3923 2189 3400 
C 2272 3036 2278 2607 2278 2096 
C 2278 1680 2278 1169 2202 792 
C 2067 95 1690 -26 1466 -26 
z
" transform="scale(0.015625)"/>
        <path id="CMSY10-0" d="M 4218 1472 
C 4326 1472 4442 1472 4442 1600 
C 4442 1728 4326 1728 4218 1728 
L 755 1728 
C 646 1728 531 1728 531 1600 
C 531 1472 646 1472 755 1472 
L 4218 1472 
z
" transform="scale(0.015625)"/>
       </defs>
       <use xlink:href="#CMR17-31" transform="scale(0.996264)"/>
       <use xlink:href="#CMR17-30" transform="translate(45.690477 0)scale(0.996264)"/>
       <use xlink:href="#CMSY10-0" transform="translate(91.380954 36.153639)scale(0.697382)"/>
       <use xlink:href="#CMR17-31" transform="translate(145.621947 36.153639)scale(0.697382)"/>
       <use xlink:href="#CMR17-36" transform="translate(177.605129 36.153639)scale(0.697382)"/>
      </g>
     </g>
    </g>
    <g id="ytick_2">
     <g id="line2d_29">
      <path d="M 72 345.6 
L 518.4 345.6 
" clip-path="url(#p46841f3e9f)" style="fill: none; stroke-dasharray: 1,3; stroke-dashoffset: 0; stroke: #000000; stroke-width: 0.5"/>
     </g>
     <g id="line2d_30">
      <g>
       <use xlink:href="#m530034a3b9" x="72" y="345.6" style="stroke: #000000; stroke-width: 0.5"/>
      </g>
     </g>
     <g id="line2d_31">
      <g>
       <use xlink:href="#m48bd4f0458" x="518.4" y="345.6" style="stroke: #000000; stroke-width: 0.5"/>
      </g>
     </g>
     <g id="text_10">
      <!-- $\mathdefault{10^{-14}}$ -->
      <g transform="translate(43.868189 348.349668)scale(0.1 -0.1)">
       <use xlink:href="#CMR17-31" transform="scale(0.996264)"/>
       <use xlink:href="#CMR17-30" transform="translate(45.690477 0)scale(0.996264)"/>
       <use xlink:href="#CMSY10-0" transform="translate(91.380954 36.153639)scale(0.697382)"/>
       <use xlink:href="#CMR17-31" transform="translate(145.621947 36.153639)scale(0.697382)"/>
       <use xlink:href="#CMR17-34" transform="translate(177.605129 36.153639)scale(0.697382)"/>
      </g>
     </g>
    </g>
    <g id="ytick_3">
     <g id="line2d_32">
      <path d="M 72 302.4 
L 518.4 302.4 
" clip-path="url(#p46841f3e9f)" style="fill: none; stroke-dasharray: 1,3; stroke-dashoffset: 0; stroke: #000000; stroke-width: 0.5"/>
     </g>
     <g id="line2d_33">
      <g>
       <use xlink:href="#m530034a3b9" x="72" y="302.4" style="stroke: #000000; stroke-width: 0.5"/>
      </g>
     </g>
     <g id="line2d_34">
      <g>
       <use xlink:href="#m48bd4f0458" x="518.4" y="302.4" style="stroke: #000000; stroke-width: 0.5"/>
      </g>
     </g>
     <g id="text_11">
      <!-- $\mathdefault{10^{-12}}$ -->
      <g transform="translate(43.868189 305.149668)scale(0.1 -0.1)">
       <use xlink:href="#CMR17-31" transform="scale(0.996264)"/>
       <use xlink:href="#CMR17-30" transform="translate(45.690477 0)scale(0.996264)"/>
       <use xlink:href="#CMSY10-0" transform="translate(91.380954 36.153639)scale(0.697382)"/>
       <use xlink:href="#CMR17-31" transform="translate(145.621947 36.153639)scale(0.697382)"/>
       <use xlink:href="#CMR17-32" transform="translate(177.605129 36.153639)scale(0.697382)"/>
      </g>
     </g>
    </g>
    <g id="ytick_4">
     <g id="line2d_35">
      <path d="M 72 259.2 
L 518.4 259.2 
" clip-path="url(#p46841f3e9f)" style="fill: none; stroke-dasharray: 1,3; stroke-dashoffset: 0; stroke: #000000; stroke-width: 0.5"/>
     </g>
     <g id="line2d_36">
      <g>
       <use xlink:href="#m530034a3b9" x="72" y="259.2" style="stroke: #000000; stroke-width: 0.5"/>
      </g>
     </g>
     <g id="line2d_37">
      <g>
       <use xlink:href="#m48bd4f0458" x="518.4" y="259.2" style="stroke: #000000; stroke-width: 0.5"/>
      </g>
     </g>
     <g id="text_12">
      <!-- $\mathdefault{10^{-10}}$ -->
      <g transform="translate(43.868189 261.949668)scale(0.1 -0.1)">
       <use xlink:href="#CMR17-31" transform="scale(0.996264)"/>
       <use xlink:href="#CMR17-30" transform="translate(45.690477 0)scale(0.996264)"/>
       <use xlink:href="#CMSY10-0" transform="translate(91.380954 36.153639)scale(0.697382)"/>
       <use xlink:href="#CMR17-31" transform="translate(145.621947 36.153639)scale(0.697382)"/>
       <use xlink:href="#CMR17-30" transform="translate(177.605129 36.153639)scale(0.697382)"/>
      </g>
     </g>
    </g>
    <g id="ytick_5">
     <g id="line2d_38">
      <path d="M 72 216 
L 518.4 216 
" clip-path="url(#p46841f3e9f)" style="fill: none; stroke-dasharray: 1,3; stroke-dashoffset: 0; stroke: #000000; stroke-width: 0.5"/>
     </g>
     <g id="line2d_39">
      <g>
       <use xlink:href="#m530034a3b9" x="72" y="216" style="stroke: #000000; stroke-width: 0.5"/>
      </g>
     </g>
     <g id="line2d_40">
      <g>
       <use xlink:href="#m48bd4f0458" x="518.4" y="216" style="stroke: #000000; stroke-width: 0.5"/>
      </g>
     </g>
     <g id="text_13">
      <!-- $\mathdefault{10^{-8}}$ -->
      <g transform="translate(47.839427 218.749668)scale(0.1 -0.1)">
       <use xlink:href="#CMR17-31" transform="scale(0.996264)"/>
       <use xlink:href="#CMR17-30" transform="translate(45.690477 0)scale(0.996264)"/>
       <use xlink:href="#CMSY10-0" transform="translate(91.380954 36.153639)scale(0.697382)"/>
       <use xlink:href="#CMR17-38" transform="translate(145.621947 36.153639)scale(0.697382)"/>
      </g>
     </g>
    </g>
    <g id="ytick_6">
     <g id="line2d_41">
      <path d="M 72 172.8 
L 518.4 172.8 
" clip-path="url(#p46841f3e9f)" style="fill: none; stroke-dasharray: 1,3; stroke-dashoffset: 0; stroke: #000000; stroke-width: 0.5"/>
     </g>
     <g id="line2d_42">
      <g>
       <use xlink:href="#m530034a3b9" x="72" y="172.8" style="stroke: #000000; stroke-width: 0.5"/>
      </g>
     </g>
     <g id="line2d_43">
      <g>
       <use xlink:href="#m48bd4f0458" x="518.4" y="172.8" style="stroke: #000000; stroke-width: 0.5"/>
      </g>
     </g>
     <g id="text_14">
      <!-- $\mathdefault{10^{-6}}$ -->
      <g transform="translate(47.839427 175.549668)scale(0.1 -0.1)">
       <use xlink:href="#CMR17-31" transform="scale(0.996264)"/>
       <use xlink:href="#CMR17-30" transform="translate(45.690477 0)scale(0.996264)"/>
       <use xlink:href="#CMSY10-0" transform="translate(91.380954 36.153639)scale(0.697382)"/>
       <use xlink:href="#CMR17-36" transform="translate(145.621947 36.153639)scale(0.697382)"/>
      </g>
     </g>
    </g>
    <g id="ytick_7">
     <g id="line2d_44">
      <path d="M 72 129.6 
L 518.4 129.6 
" clip-path="url(#p46841f3e9f)" style="fill: none; stroke-dasharray: 1,3; stroke-dashoffset: 0; stroke: #000000; stroke-width: 0.5"/>
     </g>
     <g id="line2d_45">
      <g>
       <use xlink:href="#m530034a3b9" x="72" y="129.6" style="stroke: #000000; stroke-width: 0.5"/>
      </g>
     </g>
     <g id="line2d_46">
      <g>
       <use xlink:href="#m48bd4f0458" x="518.4" y="129.6" style="stroke: #000000; stroke-width: 0.5"/>
      </g>
     </g>
     <g id="text_15">
      <!-- $\mathdefault{10^{-4}}$ -->
      <g transform="translate(47.839427 132.349668)scale(0.1 -0.1)">
       <use xlink:href="#CMR17-31" transform="scale(0.996264)"/>
       <use xlink:href="#CMR17-30" transform="translate(45.690477 0)scale(0.996264)"/>
       <use xlink:href="#CMSY10-0" transform="translate(91.380954 36.153639)scale(0.697382)"/>
       <use xlink:href="#CMR17-34" transform="translate(145.621947 36.153639)scale(0.697382)"/>
      </g>
     </g>
    </g>
    <g id="ytick_8">
     <g id="line2d_47">
      <path d="M 72 86.4 
L 518.4 86.4 
" clip-path="url(#p46841f3e9f)" style="fill: none; stroke-dasharray: 1,3; stroke-dashoffset: 0; stroke: #000000; stroke-width: 0.5"/>
     </g>
     <g id="line2d_48">
      <g>
       <use xlink:href="#m530034a3b9" x="72" y="86.4" style="stroke: #000000; stroke-width: 0.5"/>
      </g>
     </g>
     <g id="line2d_49">
      <g>
       <use xlink:href="#m48bd4f0458" x="518.4" y="86.4" style="stroke: #000000; stroke-width: 0.5"/>
      </g>
     </g>
     <g id="text_16">
      <!-- $\mathdefault{10^{-2}}$ -->
      <g transform="translate(47.839427 89.149668)scale(0.1 -0.1)">
       <use xlink:href="#CMR17-31" transform="scale(0.996264)"/>
       <use xlink:href="#CMR17-30" transform="translate(45.690477 0)scale(0.996264)"/>
       <use xlink:href="#CMSY10-0" transform="translate(91.380954 36.153639)scale(0.697382)"/>
       <use xlink:href="#CMR17-32" transform="translate(145.621947 36.153639)scale(0.697382)"/>
      </g>
     </g>
    </g>
    <g id="ytick_9">
     <g id="line2d_50">
      <path d="M 72 43.2 
L 518.4 43.2 
" clip-path="url(#p46841f3e9f)" style="fill: none; stroke-dasharray: 1,3; stroke-dashoffset: 0; stroke: #000000; stroke-width: 0.5"/>
     </g>
     <g id="line2d_51">
      <g>
       <use xlink:href="#m530034a3b9" x="72" y="43.2" style="stroke: #000000; stroke-width: 0.5"/>
      </g>
     </g>
     <g id="line2d_52">
      <g>
       <use xlink:href="#m48bd4f0458" x="518.4" y="43.2" style="stroke: #000000; stroke-width: 0.5"/>
      </g>
     </g>
     <g id="text_17">
      <!-- $\mathdefault{10^{0}}$ -->
      <g transform="translate(54.066092 45.949668)scale(0.1 -0.1)">
       <use xlink:href="#CMR17-31" transform="scale(0.996264)"/>
       <use xlink:href="#CMR17-30" transform="translate(45.690477 0)scale(0.996264)"/>
       <use xlink:href="#CMR17-30" transform="translate(91.380954 36.153639)scale(0.697382)"/>
      </g>
     </g>
    </g>
    <g id="text_18">
     <!-- $error\ in\ quadrature$ -->
     <g transform="translate(36.543593 267.826152)rotate(-90)scale(0.12 -0.12)">
      <defs>
       <path id="CMMI12-71" d="M 2822 2759 
C 2822 2790 2797 2816 2765 2816 
C 2714 2816 2464 2585 2342 2362 
C 2227 2646 2029 2816 1754 2816 
C 1030 2816 250 1884 250 939 
C 250 307 621 -64 1056 -64 
C 1395 -64 1677 193 1811 339 
L 1818 333 
L 1574 -615 
L 1517 -842 
C 1459 -1031 1363 -1031 1062 -1031 
C 992 -1031 928 -1031 928 -1152 
C 928 -1197 966 -1216 1011 -1216 
C 1101 -1216 1216 -1216 1306 -1216 
L 1958 -1216 
C 2054 -1216 2163 -1216 2259 -1216 
C 2298 -1216 2374 -1216 2374 -1095 
C 2374 -1031 2323 -1031 2227 -1031 
C 1926 -1031 1907 -986 1907 -935 
C 1907 -904 1914 -898 1933 -815 
L 2822 2759 
z
M 1920 762 
C 1888 652 1888 640 1798 518 
C 1658 339 1376 64 1075 64 
C 813 64 666 301 666 678 
C 666 1030 864 1747 986 2016 
C 1203 2464 1504 2695 1754 2695 
C 2176 2695 2259 2170 2259 2119 
C 2259 2113 2240 2028 2234 2016 
L 1920 762 
z
" transform="scale(0.015625)"/>
       <path id="CMMI12-61" d="M 1926 760 
C 1894 651 1894 639 1805 517 
C 1664 338 1382 64 1082 64 
C 819 64 672 300 672 677 
C 672 1028 870 1743 992 2012 
C 1210 2459 1510 2689 1760 2689 
C 2182 2689 2266 2165 2266 2114 
C 2266 2108 2246 2024 2240 2012 
L 1926 760 
z
M 2336 2395 
C 2266 2561 2093 2816 1760 2816 
C 1037 2816 256 1884 256 939 
C 256 307 627 -64 1062 -64 
C 1414 -64 1715 211 1894 422 
C 1958 45 2259 -64 2451 -64 
C 2643 -64 2797 51 2912 281 
C 3014 498 3104 888 3104 913 
C 3104 945 3078 971 3040 971 
C 2982 971 2976 939 2950 843 
C 2854 466 2733 64 2470 64 
C 2285 64 2272 230 2272 358 
C 2272 505 2291 575 2349 824 
C 2394 984 2426 1124 2477 1309 
C 2714 2267 2771 2497 2771 2535 
C 2771 2625 2701 2695 2605 2695 
C 2400 2695 2349 2472 2336 2395 
z
" transform="scale(0.015625)"/>
      </defs>
      <use xlink:href="#CMMI12-65" transform="scale(0.996264)"/>
      <use xlink:href="#CMMI12-72" transform="translate(45.212001 0)scale(0.996264)"/>
      <use xlink:href="#CMMI12-72" transform="translate(91.882613 0)scale(0.996264)"/>
      <use xlink:href="#CMMI12-6f" transform="translate(138.553225 0)scale(0.996264)"/>
      <use xlink:href="#CMMI12-72" transform="translate(185.448535 0)scale(0.996264)"/>
      <use xlink:href="#CMMI12-69" transform="translate(259.814316 0)scale(0.996264)"/>
      <use xlink:href="#CMMI12-6e" transform="translate(293.092918 0)scale(0.996264)"/>
      <use xlink:href="#CMMI12-71" transform="translate(379.018135 0)scale(0.996264)"/>
      <use xlink:href="#CMMI12-75" transform="translate(425.844459 0)scale(0.996264)"/>
      <use xlink:href="#CMMI12-61" transform="translate(481.364789 0)scale(0.996264)"/>
      <use xlink:href="#CMMI12-64" transform="translate(532.572646 0)scale(0.996264)"/>
      <use xlink:href="#CMMI12-72" transform="translate(583.261743 0)scale(0.996264)"/>
      <use xlink:href="#CMMI12-61" transform="translate(629.932355 0)scale(0.996264)"/>
      <use xlink:href="#CMMI12-74" transform="translate(681.140213 0)scale(0.996264)"/>
      <use xlink:href="#CMMI12-75" transform="translate(716.366543 0)scale(0.996264)"/>
      <use xlink:href="#CMMI12-72" transform="translate(771.886873 0)scale(0.996264)"/>
      <use xlink:href="#CMMI12-65" transform="translate(818.557485 0)scale(0.996264)"/>
     </g>
    </g>
   </g>
   <g id="text_19">
    <!-- $Quadrature\ convergence$ -->
    <g transform="translate(230.788247 38.2)scale(0.12 -0.12)">
     <defs>
      <path id="CMMI12-51" d="M 2726 45 
C 3827 490 4646 1663 4646 2829 
C 4646 3893 3955 4544 3059 4544 
C 1690 4544 307 3062 307 1573 
C 307 561 973 -128 1901 -128 
C 2118 -128 2330 -96 2534 -33 
C 2496 -411 2496 -442 2496 -562 
C 2496 -744 2496 -1216 3008 -1216 
C 3770 -1216 4051 -37 4051 2 
C 4051 39 4026 64 3994 64 
C 3955 64 3942 34 3923 -36 
C 3782 -429 3450 -654 3168 -654 
C 2842 -654 2758 -435 2726 45 
z
M 1574 77 
C 1069 252 826 787 826 1379 
C 826 1831 992 2689 1414 3340 
C 1888 4075 2522 4404 3021 4404 
C 3686 4404 4134 3862 4134 3024 
C 4134 2547 3910 948 2707 240 
C 2675 571 2586 960 2163 960 
C 1818 960 1523 609 1523 291 
C 1523 220 1549 123 1574 77 
z
M 2547 156 
C 2317 52 2118 12 1939 12 
C 1875 12 1651 12 1651 298 
C 1651 533 1875 832 2163 832 
C 2483 832 2554 611 2554 286 
C 2554 246 2554 194 2547 156 
z
" transform="scale(0.015625)"/>
      <path id="CMMI12-63" d="M 2502 2431 
C 2381 2431 2323 2431 2234 2355 
C 2195 2323 2125 2227 2125 2125 
C 2125 1997 2221 1920 2342 1920 
C 2496 1920 2669 2044 2669 2292 
C 2669 2588 2374 2816 1933 2816 
C 1094 2816 256 1903 256 996 
C 256 441 602 -64 1254 -64 
C 2125 -64 2675 622 2675 706 
C 2675 744 2637 776 2611 776 
C 2592 776 2586 770 2528 713 
C 2118 162 1510 64 1267 64 
C 826 64 685 446 685 764 
C 685 988 794 1605 1024 2039 
C 1190 2338 1536 2682 1939 2682 
C 2022 2682 2374 2682 2502 2431 
z
" transform="scale(0.015625)"/>
      <path id="CMMI12-76" d="M 2925 2389 
C 2925 2791 2720 2816 2669 2816 
C 2515 2816 2374 2663 2374 2535 
C 2374 2459 2419 2414 2445 2389 
C 2509 2331 2675 2159 2675 1827 
C 2675 1558 2291 64 1523 64 
C 1133 64 1056 390 1056 626 
C 1056 945 1203 1392 1376 1852 
C 1478 2114 1504 2178 1504 2305 
C 1504 2574 1312 2816 998 2816 
C 410 2816 173 1890 173 1839 
C 173 1814 198 1782 243 1782 
C 301 1782 307 1807 333 1897 
C 486 2446 736 2689 979 2689 
C 1037 2689 1146 2689 1146 2478 
C 1146 2312 1075 2127 979 1884 
C 672 1067 672 869 672 715 
C 672 575 691 313 890 134 
C 1120 -64 1440 -64 1498 -64 
C 2560 -64 2925 2024 2925 2389 
z
" transform="scale(0.015625)"/>
     </defs>
     <use xlink:href="#CMMI12-51" transform="scale(0.996264)"/>
     <use xlink:href="#CMMI12-75" transform="translate(77.260399 0)scale(0.996264)"/>
     <use xlink:href="#CMMI12-61" transform="translate(132.780728 0)scale(0.996264)"/>
     <use xlink:href="#CMMI12-64" transform="translate(183.988586 0)scale(0.996264)"/>
     <use xlink:href="#CMMI12-72" transform="translate(234.677683 0)scale(0.996264)"/>
     <use xlink:href="#CMMI12-61" transform="translate(281.348295 0)scale(0.996264)"/>
     <use xlink:href="#CMMI12-74" transform="translate(332.556152 0)scale(0.996264)"/>
     <use xlink:href="#CMMI12-75" transform="translate(367.782483 0)scale(0.996264)"/>
     <use xlink:href="#CMMI12-72" transform="translate(423.302812 0)scale(0.996264)"/>
     <use xlink:href="#CMMI12-65" transform="translate(469.973424 0)scale(0.996264)"/>
     <use xlink:href="#CMMI12-63" transform="translate(542.880595 0)scale(0.996264)"/>
     <use xlink:href="#CMMI12-6f" transform="translate(584.863829 0)scale(0.996264)"/>
     <use xlink:href="#CMMI12-6e" transform="translate(631.759138 0)scale(0.996264)"/>
     <use xlink:href="#CMMI12-76" transform="translate(689.989185 0)scale(0.996264)"/>
     <use xlink:href="#CMMI12-65" transform="translate(740.724359 0)scale(0.996264)"/>
     <use xlink:href="#CMMI12-72" transform="translate(785.93636 0)scale(0.996264)"/>
     <use xlink:href="#CMMI12-67" transform="translate(832.606972 0)scale(0.996264)"/>
     <use xlink:href="#CMMI12-65" transform="translate(882.892461 0)scale(0.996264)"/>
     <use xlink:href="#CMMI12-6e" transform="translate(928.104462 0)scale(0.996264)"/>
     <use xlink:href="#CMMI12-63" transform="translate(986.33451 0)scale(0.996264)"/>
     <use xlink:href="#CMMI12-65" transform="translate(1028.317743 0)scale(0.996264)"/>
    </g>
   </g>
   <g id="legend_1">
    <g id="patch_7">
     <path d="M 78 382.8 
L 296.667759 382.8 
L 296.667759 310.419015 
L 78 310.419015 
z
" style="fill: #ffffff; stroke: #000000; stroke-linejoin: miter"/>
    </g>
    <g id="line2d_53">
     <path d="M 86.4 319.889666 
L 103.2 319.889666 
" style="fill: none; stroke-dasharray: 6,6; stroke-dashoffset: 0; stroke: #0000ff"/>
     <g>
      <use xlink:href="#m9d7994e3b5" x="86.4" y="319.889666" style="fill: #0000ff; stroke: #0000ff; stroke-width: 0.5"/>
      <use xlink:href="#m9d7994e3b5" x="103.2" y="319.889666" style="fill: #0000ff; stroke: #0000ff; stroke-width: 0.5"/>
     </g>
    </g>
    <g id="text_20">
     <!-- $trapezoidal\ rule$ -->
     <g transform="translate(116.4 324.089666)scale(0.12 -0.12)">
      <defs>
       <path id="CMMI12-7a" d="M 813 486 
C 1088 803 1312 1004 1632 1296 
C 2016 1632 2182 1793 2272 1891 
C 2720 2338 2944 2713 2944 2764 
C 2944 2816 2893 2816 2880 2816 
C 2835 2816 2822 2793 2790 2750 
C 2630 2494 2477 2367 2310 2367 
C 2176 2367 2106 2421 1984 2565 
C 1850 2715 1741 2816 1555 2816 
C 1088 2816 806 2257 806 2128 
C 806 2108 813 2068 870 2068 
C 922 2068 928 2091 947 2133 
C 1056 2372 1363 2414 1485 2414 
C 1619 2414 1747 2376 1882 2327 
C 2125 2240 2227 2240 2291 2240 
C 2336 2240 2362 2240 2394 2246 
C 2182 1994 1837 1683 1549 1418 
L 902 816 
C 512 415 275 33 275 -12 
C 275 -51 307 -64 346 -64 
C 384 -64 390 -57 435 14 
C 538 163 742 384 979 384 
C 1114 384 1178 342 1306 193 
C 1427 61 1536 -64 1741 -64 
C 2368 -64 2726 732 2726 876 
C 2726 903 2720 942 2656 942 
C 2605 942 2598 917 2579 855 
C 2438 488 2061 338 1811 338 
C 1677 338 1549 376 1414 425 
C 1158 512 1088 512 1005 512 
C 941 512 870 512 813 486 
z
" transform="scale(0.015625)"/>
       <path id="CMMI12-6c" d="M 1626 4257 
C 1632 4282 1645 4320 1645 4352 
C 1645 4416 1581 4416 1568 4416 
C 1562 4416 1331 4393 1216 4377 
C 1107 4377 1011 4358 896 4358 
C 742 4345 698 4339 698 4224 
C 698 4160 762 4160 826 4160 
C 1152 4160 1152 4102 1152 4039 
C 1152 4014 1152 4001 1120 3887 
L 326 731 
C 307 661 294 610 294 509 
C 294 191 531 -64 858 -64 
C 1069 -64 1210 76 1312 274 
C 1421 483 1510 884 1510 909 
C 1510 941 1485 967 1446 967 
C 1389 967 1382 935 1357 840 
C 1242 401 1126 64 870 64 
C 678 64 678 267 678 357 
C 678 382 678 515 723 694 
L 1626 4257 
z
" transform="scale(0.015625)"/>
      </defs>
      <use xlink:href="#CMMI12-74" transform="scale(0.996264)"/>
      <use xlink:href="#CMMI12-72" transform="translate(35.22633 0)scale(0.996264)"/>
      <use xlink:href="#CMMI12-61" transform="translate(81.896942 0)scale(0.996264)"/>
      <use xlink:href="#CMMI12-70" transform="translate(133.1048 0)scale(0.996264)"/>
      <use xlink:href="#CMMI12-65" transform="translate(182.064314 0)scale(0.996264)"/>
      <use xlink:href="#CMMI12-7a" transform="translate(227.276315 0)scale(0.996264)"/>
      <use xlink:href="#CMMI12-6f" transform="translate(277.03146 0)scale(0.996264)"/>
      <use xlink:href="#CMMI12-69" transform="translate(323.926769 0)scale(0.996264)"/>
      <use xlink:href="#CMMI12-64" transform="translate(357.205371 0)scale(0.996264)"/>
      <use xlink:href="#CMMI12-61" transform="translate(407.894468 0)scale(0.996264)"/>
      <use xlink:href="#CMMI12-6c" transform="translate(459.102326 0)scale(0.996264)"/>
      <use xlink:href="#CMMI12-72" transform="translate(518.045899 0)scale(0.996264)"/>
      <use xlink:href="#CMMI12-75" transform="translate(564.716511 0)scale(0.996264)"/>
      <use xlink:href="#CMMI12-6c" transform="translate(620.236841 0)scale(0.996264)"/>
      <use xlink:href="#CMMI12-65" transform="translate(651.485245 0)scale(0.996264)"/>
     </g>
    </g>
    <g id="line2d_54">
     <path d="M 86.4 337.084912 
L 103.2 337.084912 
" style="fill: none; stroke-dasharray: 6,6; stroke-dashoffset: 0; stroke: #ff0000"/>
     <g>
      <use xlink:href="#m1151869ca9" x="86.4" y="337.084912" style="fill: #ff0000; stroke: #ff0000; stroke-width: 0.5"/>
      <use xlink:href="#m1151869ca9" x="103.2" y="337.084912" style="fill: #ff0000; stroke: #ff0000; stroke-width: 0.5"/>
     </g>
    </g>
    <g id="text_21">
     <!-- $trapezoidal\ rule\ 1st\ derivative$ -->
     <g transform="translate(116.4 341.284912)scale(0.12 -0.12)">
      <use xlink:href="#CMMI12-74" transform="scale(0.996264)"/>
      <use xlink:href="#CMMI12-72" transform="translate(35.22633 0)scale(0.996264)"/>
      <use xlink:href="#CMMI12-61" transform="translate(81.896942 0)scale(0.996264)"/>
      <use xlink:href="#CMMI12-70" transform="translate(133.1048 0)scale(0.996264)"/>
      <use xlink:href="#CMMI12-65" transform="translate(182.064314 0)scale(0.996264)"/>
      <use xlink:href="#CMMI12-7a" transform="translate(227.276315 0)scale(0.996264)"/>
      <use xlink:href="#CMMI12-6f" transform="translate(277.03146 0)scale(0.996264)"/>
      <use xlink:href="#CMMI12-69" transform="translate(323.926769 0)scale(0.996264)"/>
      <use xlink:href="#CMMI12-64" transform="translate(357.205371 0)scale(0.996264)"/>
      <use xlink:href="#CMMI12-61" transform="translate(407.894468 0)scale(0.996264)"/>
      <use xlink:href="#CMMI12-6c" transform="translate(459.102326 0)scale(0.996264)"/>
      <use xlink:href="#CMMI12-72" transform="translate(518.045899 0)scale(0.996264)"/>
      <use xlink:href="#CMMI12-75" transform="translate(564.716511 0)scale(0.996264)"/>
      <use xlink:href="#CMMI12-6c" transform="translate(620.236841 0)scale(0.996264)"/>
      <use xlink:href="#CMMI12-65" transform="translate(651.485245 0)scale(0.996264)"/>
      <use xlink:href="#CMR17-31" transform="translate(724.392415 0)scale(0.996264)"/>
      <use xlink:href="#CMMI12-73" transform="translate(770.082892 0)scale(0.996264)"/>
      <use xlink:href="#CMMI12-74" transform="translate(816.03294 0)scale(0.996264)"/>
      <use xlink:href="#CMMI12-64" transform="translate(878.95444 0)scale(0.996264)"/>
      <use xlink:href="#CMMI12-65" transform="translate(929.643536 0)scale(0.996264)"/>
      <use xlink:href="#CMMI12-72" transform="translate(974.855537 0)scale(0.996264)"/>
      <use xlink:href="#CMMI12-69" transform="translate(1021.526149 0)scale(0.996264)"/>
      <use xlink:href="#CMMI12-76" transform="translate(1054.804751 0)scale(0.996264)"/>
      <use xlink:href="#CMMI12-61" transform="translate(1105.539925 0)scale(0.996264)"/>
      <use xlink:href="#CMMI12-74" transform="translate(1156.747782 0)scale(0.996264)"/>
      <use xlink:href="#CMMI12-69" transform="translate(1191.974113 0)scale(0.996264)"/>
      <use xlink:href="#CMMI12-76" transform="translate(1225.252714 0)scale(0.996264)"/>
      <use xlink:href="#CMMI12-65" transform="translate(1275.987888 0)scale(0.996264)"/>
     </g>
    </g>
    <g id="line2d_55">
     <path d="M 86.4 354.280158 
L 103.2 354.280158 
" style="fill: none; stroke-dasharray: 6,6; stroke-dashoffset: 0; stroke: #bf00bf"/>
     <g>
      <use xlink:href="#ma241ad72e1" x="86.4" y="354.280158" style="fill: #bf00bf; stroke: #bf00bf; stroke-width: 0.5"/>
      <use xlink:href="#ma241ad72e1" x="103.2" y="354.280158" style="fill: #bf00bf; stroke: #bf00bf; stroke-width: 0.5"/>
     </g>
    </g>
    <g id="text_22">
     <!-- $trapezoidal\ 1st\ \&amp;\ 3rd\ derivative$ -->
     <g transform="translate(116.4 358.480158)scale(0.12 -0.12)">
      <defs>
       <path id="CMR17-26" d="M 429 1327 
C 288 1169 211 992 211 782 
C 211 264 704 -128 1306 -128 
C 1907 -128 2291 240 2419 361 
C 2592 202 2944 -128 3456 -128 
C 3910 -128 4294 214 4307 740 
L 4192 740 
C 4179 247 3763 38 3482 38 
C 3104 38 2790 411 2637 588 
C 2758 733 2963 980 3386 1732 
C 3507 1941 3686 2257 3782 2339 
C 3872 2415 4019 2522 4339 2522 
L 4339 2694 
C 4218 2688 3949 2688 3821 2688 
C 3629 2688 3328 2688 3142 2688 
L 3142 2522 
C 3354 2522 3526 2434 3526 2264 
C 3526 2163 3379 1917 3104 1463 
C 3008 1300 2784 928 2560 683 
C 2464 803 1830 1606 1517 2421 
C 2176 3211 2246 3499 2246 3703 
C 2246 3958 2163 4480 1747 4480 
C 1370 4480 979 4136 979 3518 
C 979 3193 1030 2792 1222 2238 
L 429 1327 
z
M 1478 2543 
C 1357 2875 1286 3295 1286 3639 
C 1286 4200 1549 4378 1754 4378 
C 2112 4378 2131 3805 2131 3709 
C 2131 3486 2016 3168 1478 2543 
z
M 1267 2143 
C 1581 1436 2035 793 2336 449 
C 2022 158 1677 38 1363 38 
C 845 38 621 563 621 978 
C 621 1239 704 1500 870 1691 
L 1267 2143 
z
" transform="scale(0.015625)"/>
      </defs>
      <use xlink:href="#CMMI12-74" transform="scale(0.996264)"/>
      <use xlink:href="#CMMI12-72" transform="translate(35.22633 0)scale(0.996264)"/>
      <use xlink:href="#CMMI12-61" transform="translate(81.896942 0)scale(0.996264)"/>
      <use xlink:href="#CMMI12-70" transform="translate(133.1048 0)scale(0.996264)"/>
      <use xlink:href="#CMMI12-65" transform="translate(182.064314 0)scale(0.996264)"/>
      <use xlink:href="#CMMI12-7a" transform="translate(227.276315 0)scale(0.996264)"/>
      <use xlink:href="#CMMI12-6f" transform="translate(277.03146 0)scale(0.996264)"/>
      <use xlink:href="#CMMI12-69" transform="translate(323.926769 0)scale(0.996264)"/>
      <use xlink:href="#CMMI12-64" transform="translate(357.205371 0)scale(0.996264)"/>
      <use xlink:href="#CMMI12-61" transform="translate(407.894468 0)scale(0.996264)"/>
      <use xlink:href="#CMMI12-6c" transform="translate(459.102326 0)scale(0.996264)"/>
      <use xlink:href="#CMR17-31" transform="translate(518.045899 0)scale(0.996264)"/>
      <use xlink:href="#CMMI12-73" transform="translate(563.736376 0)scale(0.996264)"/>
      <use xlink:href="#CMMI12-74" transform="translate(609.686424 0)scale(0.996264)"/>
      <use xlink:href="#CMR17-26" transform="translate(672.607924 0)scale(0.996264)"/>
      <use xlink:href="#CMR17-33" transform="translate(772.017882 0)scale(0.996264)"/>
      <use xlink:href="#CMMI12-72" transform="translate(817.708359 0)scale(0.996264)"/>
      <use xlink:href="#CMMI12-64" transform="translate(864.378971 0)scale(0.996264)"/>
      <use xlink:href="#CMMI12-64" transform="translate(942.763237 0)scale(0.996264)"/>
      <use xlink:href="#CMMI12-65" transform="translate(993.452334 0)scale(0.996264)"/>
      <use xlink:href="#CMMI12-72" transform="translate(1038.664335 0)scale(0.996264)"/>
      <use xlink:href="#CMMI12-69" transform="translate(1085.334947 0)scale(0.996264)"/>
      <use xlink:href="#CMMI12-76" transform="translate(1118.613549 0)scale(0.996264)"/>
      <use xlink:href="#CMMI12-61" transform="translate(1169.348722 0)scale(0.996264)"/>
      <use xlink:href="#CMMI12-74" transform="translate(1220.55658 0)scale(0.996264)"/>
      <use xlink:href="#CMMI12-69" transform="translate(1255.78291 0)scale(0.996264)"/>
      <use xlink:href="#CMMI12-76" transform="translate(1289.061512 0)scale(0.996264)"/>
      <use xlink:href="#CMMI12-65" transform="translate(1339.796685 0)scale(0.996264)"/>
     </g>
    </g>
    <g id="line2d_56">
     <path d="M 86.4 371.475404 
L 103.2 371.475404 
" style="fill: none; stroke-dasharray: 6,6; stroke-dashoffset: 0; stroke: #008000"/>
     <g>
      <use xlink:href="#m00f14fc88d" x="86.4" y="371.475404" style="fill: #008000; stroke: #008000; stroke-width: 0.5"/>
      <use xlink:href="#m00f14fc88d" x="103.2" y="371.475404" style="fill: #008000; stroke: #008000; stroke-width: 0.5"/>
     </g>
    </g>
    <g id="text_23">
     <!-- $gauss-legendre\ quadrature\ rule$ -->
     <g transform="translate(116.4 375.675404)scale(0.12 -0.12)">
      <use xlink:href="#CMMI12-67" transform="scale(0.996264)"/>
      <use xlink:href="#CMMI12-61" transform="translate(50.285489 0)scale(0.996264)"/>
      <use xlink:href="#CMMI12-75" transform="translate(101.493347 0)scale(0.996264)"/>
      <use xlink:href="#CMMI12-73" transform="translate(157.013677 0)scale(0.996264)"/>
      <use xlink:href="#CMMI12-73" transform="translate(202.963724 0)scale(0.996264)"/>
      <use xlink:href="#CMSY10-0" transform="translate(271.052979 0)scale(0.996264)"/>
      <use xlink:href="#CMMI12-6c" transform="translate(370.679653 0)scale(0.996264)"/>
      <use xlink:href="#CMMI12-65" transform="translate(401.928057 0)scale(0.996264)"/>
      <use xlink:href="#CMMI12-67" transform="translate(447.140058 0)scale(0.996264)"/>
      <use xlink:href="#CMMI12-65" transform="translate(497.425548 0)scale(0.996264)"/>
      <use xlink:href="#CMMI12-6e" transform="translate(542.637549 0)scale(0.996264)"/>
      <use xlink:href="#CMMI12-64" transform="translate(600.867596 0)scale(0.996264)"/>
      <use xlink:href="#CMMI12-72" transform="translate(651.556693 0)scale(0.996264)"/>
      <use xlink:href="#CMMI12-65" transform="translate(698.227305 0)scale(0.996264)"/>
      <use xlink:href="#CMMI12-71" transform="translate(771.134476 0)scale(0.996264)"/>
      <use xlink:href="#CMMI12-75" transform="translate(817.960799 0)scale(0.996264)"/>
      <use xlink:href="#CMMI12-61" transform="translate(873.481129 0)scale(0.996264)"/>
      <use xlink:href="#CMMI12-64" transform="translate(924.688987 0)scale(0.996264)"/>
      <use xlink:href="#CMMI12-72" transform="translate(975.378084 0)scale(0.996264)"/>
      <use xlink:href="#CMMI12-61" transform="translate(1022.048696 0)scale(0.996264)"/>
      <use xlink:href="#CMMI12-74" transform="translate(1073.256553 0)scale(0.996264)"/>
      <use xlink:href="#CMMI12-75" transform="translate(1108.482883 0)scale(0.996264)"/>
      <use xlink:href="#CMMI12-72" transform="translate(1164.003213 0)scale(0.996264)"/>
      <use xlink:href="#CMMI12-65" transform="translate(1210.673825 0)scale(0.996264)"/>
      <use xlink:href="#CMMI12-72" transform="translate(1283.580996 0)scale(0.996264)"/>
      <use xlink:href="#CMMI12-75" transform="translate(1330.251608 0)scale(0.996264)"/>
      <use xlink:href="#CMMI12-6c" transform="translate(1385.771937 0)scale(0.996264)"/>
      <use xlink:href="#CMMI12-65" transform="translate(1417.020341 0)scale(0.996264)"/>
     </g>
    </g>
   </g>
  </g>
 </g>
 <defs>
  <clipPath id="p46841f3e9f">
   <rect x="72" y="43.2" width="446.4" height="345.6"/>
  </clipPath>
 </defs>
</svg>
